# xmcd
#
# Track frame offsets: 
#        150
#        24191
#        41832
#        61104
#        81823
#        97154
#        113889
#        130589
#        146081
#        162481
#        183616
#
# Disc length: 2789 seconds
#
# Revision: 0
# Processed by: cddbd v1.5.2PL0 Copyright (c) Steve Scherf et al.
# Submitted via: ExactAudioCopy v0.99pb5
#
DISCID=940ae30b
DTITLE=Chick Willis - Blues Me Before You Lose Me
DYEAR=2012
DGENRE=Blues
TTITLE0=The Blues Is Gone
TTITLE1=Mother Fuyer
TTITLE2=Black Widow Spider
TTITLE3=Keep Singing The Blues (Shag Mix)
TTITLE4=Why We Need Obama
TTITLE5=The Train Is Gone
TTITLE6=The Gas Is Too High
TTITLE7=Don't Deceive Me
TTITLE8=In The Mood We're In
TTITLE9=Four Wives Too Many
TTITLE10=What I Say
EXTD=
EXTT0=
EXTT1=
EXTT2=
EXTT3=
EXTT4=
EXTT5=
EXTT6=
EXTT7=
EXTT8=
EXTT9=
EXTT10=
PLAYORDER=
